<?xml version="1.0" standalone="no"?>
<!DOCTYPE svg PUBLIC "-//W3C//DTD SVG 20010904//EN"
 "http://www.w3.org/TR/2001/REC-SVG-20010904/DTD/svg10.dtd">
<svg version="1.0" xmlns="http://www.w3.org/2000/svg"
 width="156.000000pt" height="156.000000pt" viewBox="0 0 156.000000 156.000000"
 preserveAspectRatio="xMidYMid meet">
<metadata>
Created by potrace 1.11, written by Peter Selinger 2001-2013
</metadata>
<g transform="translate(0.000000,156.000000) scale(0.100000,-0.100000)"
fill="#000000" stroke="none">
<path d="M715 1520 c-89 -21 -103 -33 -197 -174 -18 -27 -58 -74 -89 -105 -31
-31 -64 -72 -73 -92 -9 -20 -22 -36 -29 -36 -21 -1 -131 -13 -166 -18 -60 -8
-91 -57 -57 -90 15 -16 116 -64 156 -75 17 -5 24 -13 22 -26 -2 -10 -6 -33 -9
-51 -7 -43 24 -192 46 -223 10 -14 20 -41 24 -61 10 -65 49 -200 61 -212 7 -7
20 -34 30 -61 10 -27 26 -51 35 -53 9 -2 27 -29 40 -59 24 -54 34 -64 45 -41
4 7 8 8 11 2 3 -5 15 -26 26 -45 21 -34 21 -34 33 -11 l12 22 28 -35 c33 -44
47 -45 80 -5 25 30 46 32 46 3 0 -25 16 -15 45 26 30 43 40 48 49 25 9 -25 21
-17 46 28 35 63 42 71 52 55 9 -15 38 15 64 69 9 18 21 30 28 27 14 -5 60 82
96 184 17 47 27 61 39 58 24 -8 43 12 74 76 39 81 54 152 40 189 -14 35 -13
35 68 42 62 6 93 20 107 51 11 25 -4 66 -25 66 -7 0 -13 4 -13 9 0 8 -83 37
-135 47 -40 7 -43 10 -55 54 -6 21 -16 45 -23 52 -7 7 -23 36 -36 63 -13 28
-28 58 -33 67 -4 10 -8 27 -8 38 0 11 -4 20 -9 20 -5 0 -12 10 -15 23 -15 57
-141 157 -218 172 -50 10 -179 13 -213 5z"/>
</g>
</svg>
